<svg width="800" height="326" viewBox="0 0 800 326" fill="none" xmlns="http://www.w3.org/2000/svg">
<g clip-path="url(#clip0)">
<mask id="mask0" mask-type="alpha" maskUnits="userSpaceOnUse" x="-10" y="0" width="810" height="326">
<path fill-rule="evenodd" clip-rule="evenodd" d="M800 0H-10V326H40V83H186V326H800V0Z" fill="white"/>
</mask>
<g mask="url(#mask0)">
<path d="M18.88 91.08L19.2 290.44H42.56V217.8C52.48 232.2 68.8 241.16 86.4 241.16C116.48 241.16 147.84 215.88 147.84 162.44C147.84 110.92 117.44 87.88 88.64 87.88C69.76 87.88 52.16 97.48 42.24 113.48V91.08H18.88ZM80 107.4C92.8 107.4 123.84 114.12 123.84 167.24C123.84 213.32 93.76 220.68 80 220.68C66.24 220.68 52.16 213.64 46.4 200.52C42.24 190.6 42.24 178.44 42.24 157.32C42.24 145.16 42.88 136.2 46.08 128.52C51.84 115.4 65.28 107.4 80 107.4ZM191.68 91.08V237.32H214.72V166.28C214.72 157.32 215.04 147.72 224.96 132.04C238.4 110.92 255.68 107.4 266.24 107.4C278.4 107.4 286.08 113.16 290.24 118.28C292.16 120.84 293.12 123.4 295.68 125.64L306.56 103.56C297.28 93.96 283.84 87.56 267.52 87.56C246.08 87.56 224.32 98.44 214.72 119.24L215.68 91.08H191.68ZM465.92 115.08C454.4 98.12 434.88 87.88 411.2 87.88C368.32 87.88 337.92 120.2 337.92 164.04C337.92 208.2 368.32 240.84 409.92 240.84C430.08 240.84 449.92 232.52 463.68 217.48L450.56 202.12C440.64 213.32 426.24 219.72 411.84 219.72C383.36 219.72 361.6 196.04 361.6 161.8C361.6 128.52 383.04 107.72 409.92 107.72C434.88 107.72 446.72 125 447.68 126.92C448.96 129.16 447.04 132.36 449.6 134.28L465.92 115.08ZM506.88 24.52V43.08H548.48V218.76H504.96V237H614.72V218.76H571.52V24.52H506.88ZM662.4 90.76V110.92H746.56L656 221.64V237.32H783.68V215.56C779.84 214.92 778.56 217.48 774.08 217.48H687.04L776.32 106.44V90.76H662.4Z" fill="black"/>
</g>
<path d="M39.7933 188.735C39.7933 217.218 70.6267 235.019 95.2933 220.778L155.624 185.946C180.29 171.705 180.29 136.102 155.624 121.86L95.2933 87.0287C70.6266 72.7874 39.7933 90.5891 39.7933 119.072L39.7933 188.735Z" fill="#E4D0D9" stroke="black" stroke-width="14"/>
<path d="M125.609 189.935C125.609 195.708 119.359 199.317 114.359 196.43L51.3158 160.032C46.3158 157.145 46.3158 149.928 51.3158 147.041L114.359 110.644C119.359 107.757 125.609 111.365 125.609 117.139L125.609 189.935Z" fill="#8E4160" stroke="#853152"/>
<path d="M103.511 153.24C103.511 156.794 100.629 159.676 97.0751 159.676C93.5208 159.676 90.6394 156.794 90.6394 153.24C90.6394 149.686 93.5208 146.805 97.0751 146.805C100.629 146.805 103.511 149.686 103.511 153.24Z" fill="white"/>
<path d="M154.996 153.24C154.996 156.794 152.114 159.676 148.56 159.676C145.006 159.676 142.124 156.794 142.124 153.24C142.124 149.686 145.006 146.805 148.56 146.805C152.114 146.805 154.996 149.686 154.996 153.24Z" fill="white"/>
<path d="M149.145 153.825H97.6601" stroke="white"/>
<path d="M96.49 153.825L70.7475 198.413" stroke="white"/>
<path d="M70.7475 109.361L96.49 153.948" stroke="white"/>
<path d="M74.5658 192.27C77.6439 194.047 78.6985 197.983 76.9214 201.061C75.1442 204.139 71.2082 205.194 68.1301 203.416C65.052 201.639 63.9974 197.703 65.7745 194.625C67.5517 191.547 71.4876 190.492 74.5658 192.27Z" fill="white"/>
<path d="M100.308 147.682C103.386 149.459 104.441 153.395 102.664 156.473C100.887 159.552 96.9508 160.606 93.8726 158.829C90.7945 157.052 89.7399 153.116 91.517 150.038C93.2942 146.96 97.2302 145.905 100.308 147.682Z" fill="white"/>
<path d="M93.8726 147.805C96.9507 146.028 100.887 147.083 102.664 150.161C104.441 153.239 103.386 157.175 100.308 158.952C97.2301 160.729 93.2942 159.675 91.517 156.596C89.7399 153.518 90.7945 149.582 93.8726 147.805Z" fill="white"/>
<path d="M68.1301 103.218C71.2082 101.441 75.1442 102.495 76.9213 105.573C78.6985 108.652 77.6438 112.588 74.5657 114.365C71.4876 116.142 67.5516 115.087 65.7745 112.009C63.9973 108.931 65.052 104.995 68.1301 103.218Z" fill="white"/>
</g>
<defs>
<clipPath id="clip0">
<rect width="800" height="326" fill="white"/>
</clipPath>
</defs>
</svg>
