<svg width="800" height="326" viewBox="0 0 800 326" fill="none" xmlns="http://www.w3.org/2000/svg">
<mask id="mask0" mask-type="alpha" maskUnits="userSpaceOnUse" x="0" y="0" width="800" height="326">
<path fill-rule="evenodd" clip-rule="evenodd" d="M800 0H0V326H98V83H244V326H800V0Z" fill="white"/>
</mask>
<g mask="url(#mask0)">
<path d="M75.88 91.08L76.2 290.44H99.56V217.8C109.48 232.2 125.8 241.16 143.4 241.16C173.48 241.16 204.84 215.88 204.84 162.44C204.84 110.92 174.44 87.88 145.64 87.88C126.76 87.88 109.16 97.48 99.24 113.48V91.08H75.88ZM137 107.4C149.8 107.4 180.84 114.12 180.84 167.24C180.84 213.32 150.76 220.68 137 220.68C123.24 220.68 109.16 213.64 103.4 200.52C99.24 190.6 99.24 178.44 99.24 157.32C99.24 145.16 99.88 136.2 103.08 128.52C108.84 115.4 122.28 107.4 137 107.4ZM243.88 91.08V237.32H266.92V166.28C266.92 157.32 267.24 147.72 277.16 132.04C290.6 110.92 307.88 107.4 318.44 107.4C330.6 107.4 338.28 113.16 342.44 118.28C344.36 120.84 345.32 123.4 347.88 125.64L358.76 103.56C349.48 93.96 336.04 87.56 319.72 87.56C298.28 87.56 276.52 98.44 266.92 119.24L267.88 91.08H243.88ZM481.32 115.08C469.8 98.12 450.28 87.88 426.6 87.88C383.72 87.88 353.32 120.2 353.32 164.04C353.32 208.2 383.72 240.84 425.32 240.84C445.48 240.84 465.32 232.52 479.08 217.48L465.96 202.12C456.04 213.32 441.64 219.72 427.24 219.72C398.76 219.72 377 196.04 377 161.8C377 128.52 398.44 107.72 425.32 107.72C450.28 107.72 462.12 125 463.08 126.92C464.36 129.16 462.44 132.36 465 134.28L481.32 115.08ZM485.48 24.52V43.08H527.08V218.76H483.56V237H593.32V218.76H550.12V24.52H485.48ZM604.2 90.76V110.92H688.36L597.8 221.64V237.32H725.48V215.56C721.64 214.92 720.36 217.48 715.88 217.48H628.84L718.12 106.44V90.76H604.2Z" fill="black"/>
</g>
<path d="M97.7933 188.735C97.7933 217.218 128.627 235.019 153.293 220.778L213.624 185.946C238.29 171.705 238.29 136.102 213.624 121.86L153.293 87.0287C128.627 72.7874 97.7933 90.5891 97.7933 119.072L97.7933 188.735Z" fill="#E4D0D9" stroke="black" stroke-width="14"/>
<path d="M183.609 189.935C183.609 195.708 177.359 199.317 172.359 196.43L109.316 160.032C104.316 157.145 104.316 149.928 109.316 147.041L172.359 110.644C177.359 107.757 183.609 111.365 183.609 117.139L183.609 189.935Z" fill="#8E4160" stroke="#853152"/>
<path d="M161.511 153.24C161.511 156.794 158.629 159.676 155.075 159.676C151.521 159.676 148.639 156.794 148.639 153.24C148.639 149.686 151.521 146.805 155.075 146.805C158.629 146.805 161.511 149.686 161.511 153.24Z" fill="white"/>
<path d="M212.996 153.24C212.996 156.794 210.114 159.676 206.56 159.676C203.006 159.676 200.125 156.794 200.125 153.24C200.125 149.686 203.006 146.805 206.56 146.805C210.114 146.805 212.996 149.686 212.996 153.24Z" fill="white"/>
<path d="M207.145 153.825H155.66" stroke="white"/>
<path d="M154.49 153.825L128.747 198.413" stroke="white"/>
<path d="M128.747 109.361L154.49 153.948" stroke="white"/>
<path d="M132.566 192.27C135.644 194.047 136.699 197.983 134.921 201.061C133.144 204.139 129.208 205.194 126.13 203.416C123.052 201.639 121.997 197.703 123.775 194.625C125.552 191.547 129.488 190.492 132.566 192.27Z" fill="white"/>
<path d="M158.308 147.682C161.386 149.459 162.441 153.395 160.664 156.473C158.887 159.552 154.951 160.606 151.873 158.829C148.795 157.052 147.74 153.116 149.517 150.038C151.294 146.96 155.23 145.905 158.308 147.682Z" fill="white"/>
<path d="M151.873 147.805C154.951 146.028 158.887 147.083 160.664 150.161C162.441 153.239 161.386 157.175 158.308 158.952C155.23 160.729 151.294 159.675 149.517 156.596C147.74 153.518 148.795 149.582 151.873 147.805Z" fill="white"/>
<path d="M126.13 103.218C129.208 101.441 133.144 102.495 134.921 105.573C136.698 108.652 135.644 112.588 132.566 114.365C129.488 116.142 125.552 115.087 123.775 112.009C121.997 108.931 123.052 104.995 126.13 103.218Z" fill="white"/>
</svg>
