<svg width="800" height="326" viewBox="0 0 800 326" fill="none" xmlns="http://www.w3.org/2000/svg">
<mask id="mask0" mask-type="alpha" maskUnits="userSpaceOnUse" x="0" y="0" width="800" height="326">
<path fill-rule="evenodd" clip-rule="evenodd" d="M800 0H0V326H109V83H250V326H800V0Z" fill="white"/>
</mask>
<g mask="url(#mask0)">
<path d="M169.64 260.2C155.987 260.2 143.827 256.787 133.16 249.96C122.493 243.133 114.067 234.493 107.88 224.04V325.16H79.72V89.96H104.68V121.32C111.293 111.08 119.933 102.867 130.6 96.68C141.267 90.28 152.893 87.08 165.48 87.08C177 87.08 187.56 89.4267 197.16 94.12C206.76 98.8133 215.08 105.213 222.12 113.32C229.16 121.427 234.6 130.707 238.44 141.16C242.493 151.4 244.52 162.173 244.52 173.48C244.52 189.267 241.32 203.773 234.92 217C228.733 230.227 219.987 240.787 208.68 248.68C197.373 256.36 184.36 260.2 169.64 260.2ZM161 235.88C172.093 235.88 181.693 232.893 189.8 226.92C197.907 220.947 204.2 213.16 208.68 203.56C213.373 193.96 215.72 183.933 215.72 173.48C215.72 162.173 213.16 151.827 208.04 142.44C203.133 133.053 196.307 125.587 187.56 120.04C179.027 114.28 169.32 111.4 158.44 111.4C151.827 111.4 144.787 113.107 137.32 116.52C130.067 119.933 123.667 124.52 118.12 130.28C112.787 135.827 109.373 142.013 107.88 148.84V196.52C112.573 207.613 119.72 217 129.32 224.68C139.133 232.147 149.693 235.88 161 235.88ZM338.615 114.6C324.535 114.813 312.055 118.44 301.175 125.48C290.508 132.307 282.935 141.8 278.455 153.96V257H250.295V89.96H276.535V128.68C282.295 117.16 289.868 107.88 299.255 100.84C308.855 93.5867 318.882 89.5333 329.335 88.68C331.468 88.68 333.282 88.68 334.775 88.68C336.268 88.68 337.548 88.7867 338.615 89V114.6ZM417.515 260.2C400.875 260.2 386.155 256.253 373.355 248.36C360.555 240.253 350.528 229.587 343.275 216.36C336.022 203.133 332.395 188.733 332.395 173.16C332.395 157.373 335.915 142.973 342.955 129.96C349.995 116.947 359.915 106.6 372.715 98.92C385.515 91.0267 400.342 87.08 417.195 87.08C433.622 87.08 447.915 90.8133 460.075 98.28C472.448 105.533 481.622 115.347 487.595 127.72L460.075 136.36C455.808 128.467 449.835 122.387 442.155 118.12C434.475 113.64 425.942 111.4 416.555 111.4C406.315 111.4 396.928 114.067 388.395 119.4C380.075 124.733 373.462 132.093 368.555 141.48C363.648 150.653 361.195 161.213 361.195 173.16C361.195 184.893 363.648 195.56 368.555 205.16C373.675 214.547 380.395 222.013 388.715 227.56C397.248 233.107 406.635 235.88 416.875 235.88C423.488 235.88 429.782 234.707 435.755 232.36C441.942 230.013 447.275 226.92 451.755 223.08C456.448 219.027 459.648 214.653 461.355 209.96L488.875 218.28C483.968 230.44 475.008 240.467 461.995 248.36C449.195 256.253 434.368 260.2 417.515 260.2ZM502.222 23.4H530.382V213.8C530.382 222.973 531.662 228.627 534.222 230.76C536.782 232.893 539.876 233.96 543.502 233.96C547.982 233.96 552.249 233.533 556.302 232.68C560.356 231.613 563.769 230.547 566.542 229.48L571.022 252.52C566.329 254.44 560.782 256.04 554.382 257.32C547.982 258.6 542.329 259.24 537.422 259.24C526.542 259.24 517.902 256.147 511.502 249.96C505.316 243.773 502.222 235.133 502.222 224.04V23.4ZM586.425 238.76L691.705 110.44H589.305V89.96H723.385V108.2L618.745 236.52H723.705V257H586.425V238.76Z" fill="black"/>
</g>
<path d="M106.793 197.735C106.793 226.218 137.627 244.019 162.293 229.778L222.624 194.946C247.29 180.705 247.29 145.102 222.624 130.86L162.293 96.0287C137.627 81.7874 106.793 99.5891 106.793 128.072L106.793 197.735Z" fill="#E4D0D9" stroke="black" stroke-width="14"/>
<path d="M192.609 198.935C192.609 204.708 186.359 208.317 181.359 205.43L118.316 169.032C113.316 166.145 113.316 158.928 118.316 156.041L181.359 119.644C186.359 116.757 192.609 120.365 192.609 126.139L192.609 198.935Z" fill="#8E4160" stroke="#853152"/>
<path d="M170.511 162.24C170.511 165.794 167.629 168.676 164.075 168.676C160.521 168.676 157.639 165.794 157.639 162.24C157.639 158.686 160.521 155.805 164.075 155.805C167.629 155.805 170.511 158.686 170.511 162.24Z" fill="white"/>
<path d="M221.996 162.24C221.996 165.794 219.114 168.676 215.56 168.676C212.006 168.676 209.125 165.794 209.125 162.24C209.125 158.686 212.006 155.805 215.56 155.805C219.114 155.805 221.996 158.686 221.996 162.24Z" fill="white"/>
<path d="M216.145 162.825H164.66" stroke="white"/>
<path d="M163.49 162.825L137.747 207.413" stroke="white"/>
<path d="M137.747 118.361L163.49 162.948" stroke="white"/>
<path d="M141.566 201.27C144.644 203.047 145.699 206.983 143.921 210.061C142.144 213.139 138.208 214.194 135.13 212.416C132.052 210.639 130.997 206.703 132.775 203.625C134.552 200.547 138.488 199.492 141.566 201.27Z" fill="white"/>
<path d="M167.308 156.682C170.386 158.459 171.441 162.395 169.664 165.473C167.887 168.552 163.951 169.606 160.873 167.829C157.795 166.052 156.74 162.116 158.517 159.038C160.294 155.96 164.23 154.905 167.308 156.682Z" fill="white"/>
<path d="M160.873 156.805C163.951 155.028 167.887 156.083 169.664 159.161C171.441 162.239 170.386 166.175 167.308 167.952C164.23 169.729 160.294 168.675 158.517 165.596C156.74 162.518 157.795 158.582 160.873 156.805Z" fill="white"/>
<path d="M135.13 112.218C138.208 110.441 142.144 111.495 143.921 114.573C145.698 117.652 144.644 121.588 141.566 123.365C138.488 125.142 134.552 124.087 132.775 121.009C130.997 117.931 132.052 113.995 135.13 112.218Z" fill="white"/>
</svg>
