<svg width="800" height="326" viewBox="0 0 800 326" fill="none" xmlns="http://www.w3.org/2000/svg">
<mask id="mask0" mask-type="alpha" maskUnits="userSpaceOnUse" x="0" y="0" width="800" height="326">
<path fill-rule="evenodd" clip-rule="evenodd" d="M800 0H0V326H98V83H250V326H800V0Z" fill="white"/>
</mask>
<g mask="url(#mask0)">
<path d="M169.64 260.2C155.987 260.2 143.827 256.787 133.16 249.96C122.493 243.133 114.067 234.493 107.88 224.04V325.16H79.72V89.96H104.68V121.32C111.293 111.08 119.933 102.867 130.6 96.68C141.267 90.28 152.893 87.08 165.48 87.08C177 87.08 187.56 89.4267 197.16 94.12C206.76 98.8133 215.08 105.213 222.12 113.32C229.16 121.427 234.6 130.707 238.44 141.16C242.493 151.4 244.52 162.173 244.52 173.48C244.52 189.267 241.32 203.773 234.92 217C228.733 230.227 219.987 240.787 208.68 248.68C197.373 256.36 184.36 260.2 169.64 260.2ZM161 235.88C172.093 235.88 181.693 232.893 189.8 226.92C197.907 220.947 204.2 213.16 208.68 203.56C213.373 193.96 215.72 183.933 215.72 173.48C215.72 162.173 213.16 151.827 208.04 142.44C203.133 133.053 196.307 125.587 187.56 120.04C179.027 114.28 169.32 111.4 158.44 111.4C151.827 111.4 144.787 113.107 137.32 116.52C130.067 119.933 123.667 124.52 118.12 130.28C112.787 135.827 109.373 142.013 107.88 148.84V196.52C112.573 207.613 119.72 217 129.32 224.68C139.133 232.147 149.693 235.88 161 235.88ZM338.615 114.6C324.535 114.813 312.055 118.44 301.175 125.48C290.508 132.307 282.935 141.8 278.455 153.96V257H250.295V89.96H276.535V128.68C282.295 117.16 289.868 107.88 299.255 100.84C308.855 93.5867 318.882 89.5333 329.335 88.68C331.468 88.68 333.282 88.68 334.775 88.68C336.268 88.68 337.548 88.7867 338.615 89V114.6ZM417.515 260.2C400.875 260.2 386.155 256.253 373.355 248.36C360.555 240.253 350.528 229.587 343.275 216.36C336.022 203.133 332.395 188.733 332.395 173.16C332.395 157.373 335.915 142.973 342.955 129.96C349.995 116.947 359.915 106.6 372.715 98.92C385.515 91.0267 400.342 87.08 417.195 87.08C433.622 87.08 447.915 90.8133 460.075 98.28C472.448 105.533 481.622 115.347 487.595 127.72L460.075 136.36C455.808 128.467 449.835 122.387 442.155 118.12C434.475 113.64 425.942 111.4 416.555 111.4C406.315 111.4 396.928 114.067 388.395 119.4C380.075 124.733 373.462 132.093 368.555 141.48C363.648 150.653 361.195 161.213 361.195 173.16C361.195 184.893 363.648 195.56 368.555 205.16C373.675 214.547 380.395 222.013 388.715 227.56C397.248 233.107 406.635 235.88 416.875 235.88C423.488 235.88 429.782 234.707 435.755 232.36C441.942 230.013 447.275 226.92 451.755 223.08C456.448 219.027 459.648 214.653 461.355 209.96L488.875 218.28C483.968 230.44 475.008 240.467 461.995 248.36C449.195 256.253 434.368 260.2 417.515 260.2ZM502.222 23.4H530.382V213.8C530.382 222.973 531.662 228.627 534.222 230.76C536.782 232.893 539.876 233.96 543.502 233.96C547.982 233.96 552.249 233.533 556.302 232.68C560.356 231.613 563.769 230.547 566.542 229.48L571.022 252.52C566.329 254.44 560.782 256.04 554.382 257.32C547.982 258.6 542.329 259.24 537.422 259.24C526.542 259.24 517.902 256.147 511.502 249.96C505.316 243.773 502.222 235.133 502.222 224.04V23.4ZM586.425 238.76L691.705 110.44H589.305V89.96H723.385V108.2L618.745 236.52H723.705V257H586.425V238.76Z" fill="black"/>
</g>
<path d="M97.7933 188.735C97.7933 217.218 128.627 235.019 153.293 220.778L213.624 185.946C238.29 171.705 238.29 136.102 213.624 121.86L153.293 87.0287C128.627 72.7874 97.7933 90.5891 97.7933 119.072L97.7933 188.735Z" fill="#E4D0D9" stroke="black" stroke-width="14"/>
<path d="M183.609 189.935C183.609 195.708 177.359 199.317 172.359 196.43L109.316 160.032C104.316 157.145 104.316 149.928 109.316 147.041L172.359 110.644C177.359 107.757 183.609 111.365 183.609 117.139L183.609 189.935Z" fill="#8E4160" stroke="#853152"/>
<path d="M161.511 153.24C161.511 156.794 158.629 159.676 155.075 159.676C151.521 159.676 148.639 156.794 148.639 153.24C148.639 149.686 151.521 146.805 155.075 146.805C158.629 146.805 161.511 149.686 161.511 153.24Z" fill="white"/>
<path d="M212.996 153.24C212.996 156.794 210.114 159.676 206.56 159.676C203.006 159.676 200.125 156.794 200.125 153.24C200.125 149.686 203.006 146.805 206.56 146.805C210.114 146.805 212.996 149.686 212.996 153.24Z" fill="white"/>
<path d="M207.145 153.825H155.66" stroke="white"/>
<path d="M154.49 153.825L128.747 198.413" stroke="white"/>
<path d="M128.747 109.361L154.49 153.948" stroke="white"/>
<path d="M132.566 192.27C135.644 194.047 136.699 197.983 134.921 201.061C133.144 204.139 129.208 205.194 126.13 203.416C123.052 201.639 121.997 197.703 123.775 194.625C125.552 191.547 129.488 190.492 132.566 192.27Z" fill="white"/>
<path d="M158.308 147.682C161.386 149.459 162.441 153.395 160.664 156.473C158.887 159.552 154.951 160.606 151.873 158.829C148.795 157.052 147.74 153.116 149.517 150.038C151.294 146.96 155.23 145.905 158.308 147.682Z" fill="white"/>
<path d="M151.873 147.805C154.951 146.028 158.887 147.083 160.664 150.161C162.441 153.239 161.386 157.175 158.308 158.952C155.23 160.729 151.294 159.675 149.517 156.596C147.74 153.518 148.795 149.582 151.873 147.805Z" fill="white"/>
<path d="M126.13 103.218C129.208 101.441 133.144 102.495 134.921 105.573C136.698 108.652 135.644 112.588 132.566 114.365C129.488 116.142 125.552 115.087 123.775 112.009C121.997 108.931 123.052 104.995 126.13 103.218Z" fill="white"/>
</svg>
