<svg width="800" height="326" viewBox="0 0 800 326" fill="none" xmlns="http://www.w3.org/2000/svg">
<g clip-path="url(#clip0)">
<mask id="mask0" mask-type="alpha" maskUnits="userSpaceOnUse" x="0" y="0" width="800" height="326">
<path fill-rule="evenodd" clip-rule="evenodd" d="M800 0H0V326H62V83H229V326H800V0Z" fill="white"/>
</mask>
<g mask="url(#mask0)">
<path d="M204.56 171.12C204.56 157.467 202.32 145.307 197.84 134.64C193.36 123.973 187.387 115.013 179.92 107.76C172.453 100.293 163.92 94.64 154.32 90.8C144.933 86.96 135.333 85.04 125.52 85.04C117.84 85.04 110.8 86.1067 104.4 88.24C98.2133 90.16 92.56 92.8267 87.44 96.24C82.32 99.44 77.6267 103.28 73.36 107.76C69.3067 112.24 65.5733 116.933 62.16 121.84V88.56H37.52V305.2H62.16V222.32C65.36 227.013 68.9867 231.493 73.04 235.76C77.3067 240.027 82 243.76 87.12 246.96C92.24 250.16 98 252.72 104.4 254.64C110.8 256.56 117.84 257.52 125.52 257.52C135.547 257.52 145.253 255.6 154.64 251.76C164.24 247.707 172.667 242.053 179.92 234.8C187.387 227.333 193.36 218.267 197.84 207.6C202.32 196.933 204.56 184.773 204.56 171.12ZM179.28 171.44C179.28 181.467 177.68 190.533 174.48 198.64C171.493 206.533 167.333 213.253 162 218.8C156.88 224.133 150.693 228.293 143.44 231.28C136.4 234.053 128.933 235.44 121.04 235.44C113.36 235.44 105.893 233.947 98.64 230.96C91.6 227.76 85.2 223.387 79.44 217.84C73.8933 212.293 69.4133 205.573 66 197.68C62.8 189.573 61.2 180.72 61.2 171.12C61.2 161.52 62.8 152.773 66 144.88C69.4133 136.987 73.8933 130.267 79.44 124.72C85.2 119.173 91.6 114.907 98.64 111.92C105.893 108.72 113.36 107.12 121.04 107.12C128.933 107.12 136.4 108.613 143.44 111.6C150.48 114.587 156.667 118.96 162 124.72C167.333 130.267 171.493 136.987 174.48 144.88C177.68 152.773 179.28 161.627 179.28 171.44ZM274.66 188.08C274.66 175.707 276.367 164.827 279.78 155.44C283.193 145.84 287.887 137.84 293.86 131.44C299.833 125.04 306.767 120.24 314.66 117.04C322.767 113.84 331.3 112.24 340.26 112.24H342.18V85.68C334.287 85.4667 326.927 86.4267 320.1 88.56C313.273 90.6933 306.98 93.8933 301.22 98.16C295.46 102.213 290.34 107.12 285.86 112.88C281.38 118.64 277.647 124.933 274.66 131.76V88.56H250.02V254H274.66V188.08ZM513.788 225.84L498.108 211.12C491.494 218.16 484.028 224.027 475.708 228.72C467.601 233.413 458.214 235.76 447.548 235.76C438.801 235.76 430.694 234.16 423.228 230.96C415.974 227.547 409.574 222.96 404.028 217.2C398.694 211.227 394.428 204.293 391.227 196.4C388.241 188.507 386.748 180.08 386.748 171.12C386.748 162.16 388.241 153.84 391.227 146.16C394.214 138.267 398.374 131.44 403.708 125.68C409.041 119.707 415.334 115.12 422.588 111.92C429.841 108.507 437.628 106.8 445.948 106.8C457.254 106.8 466.748 109.253 474.428 114.16C482.321 119.067 489.574 124.933 496.188 131.76L512.508 114.48C508.668 110.427 504.508 106.587 500.028 102.96C495.548 99.3333 490.641 96.24 485.308 93.68C479.974 90.9067 474.108 88.7733 467.708 87.28C461.308 85.7867 454.161 85.04 446.268 85.04C434.108 85.04 422.801 87.3867 412.348 92.08C402.108 96.56 393.148 102.747 385.468 110.64C378.001 118.533 372.134 127.813 367.868 138.48C363.601 148.933 361.468 160.027 361.468 171.76C361.468 183.493 363.601 194.587 367.868 205.04C372.134 215.493 378.001 224.667 385.468 232.56C393.148 240.24 402.108 246.427 412.348 251.12C422.801 255.6 434.108 257.84 446.268 257.84C461.841 257.84 474.854 254.853 485.308 248.88C495.974 242.907 505.468 235.227 513.788 225.84ZM581.4 254V20.4H556.76V254H581.4ZM738.743 109.36L628.983 238.32V254H772.343V233.2H662.263L772.343 104.24V88.56H632.823V109.36H738.743Z" fill="black"/>
</g>
<path d="M67.7302 121.231L67.7302 208.769C67.7302 237.251 98.5634 255.053 123.23 240.812L199.04 197.043C223.706 182.802 223.706 147.198 199.04 132.957L123.23 89.1884C98.5635 74.9471 67.7302 92.7487 67.7302 121.231Z" fill="#E4D0D9" stroke="black" stroke-width="14"/>
<path d="M161.61 123.201L161.61 205.99C161.61 211.763 155.36 215.372 150.36 212.485L78.6629 171.091C73.6629 168.204 73.6629 160.987 78.6629 158.1L150.36 116.706C155.36 113.819 161.61 117.428 161.61 123.201Z" fill="#8E4160" stroke="#853152"/>
<path d="M137.288 164.268C137.288 168.189 134.11 171.367 130.189 171.367C126.269 171.367 123.091 168.189 123.091 164.268C123.091 160.348 126.269 157.17 130.189 157.17C134.11 157.17 137.288 160.348 137.288 164.268Z" fill="white"/>
<path d="M194.074 164.268C194.074 168.189 190.896 171.367 186.976 171.367C183.055 171.367 179.877 168.189 179.877 164.268C179.877 160.348 183.055 157.17 186.976 157.17C190.896 157.17 194.074 160.348 194.074 164.268Z" fill="white"/>
<path d="M187.621 164.914H130.835" stroke="white"/>
<path d="M129.544 164.914L101.151 214.092" stroke="white"/>
<path d="M101.151 115.871L129.544 165.049" stroke="white"/>
<path d="M105.362 207.317C108.757 209.277 109.921 213.618 107.96 217.013C106 220.408 101.659 221.571 98.264 219.611C94.8689 217.651 93.7057 213.31 95.6658 209.915C97.626 206.52 101.967 205.356 105.362 207.317Z" fill="white"/>
<path d="M133.755 158.138C137.151 160.098 138.314 164.44 136.354 167.835C134.393 171.23 130.052 172.393 126.657 170.433C123.262 168.473 122.099 164.131 124.059 160.736C126.019 157.341 130.36 156.178 133.755 158.138Z" fill="white"/>
<path d="M126.657 158.274C130.052 156.314 134.393 157.477 136.354 160.872C138.314 164.267 137.15 168.608 133.755 170.568C130.36 172.529 126.019 171.365 124.059 167.97C122.099 164.575 123.262 160.234 126.657 158.274Z" fill="white"/>
<path d="M98.264 109.095C101.659 107.135 106 108.299 107.96 111.694C109.921 115.089 108.757 119.43 105.362 121.39C101.967 123.35 97.626 122.187 95.6658 118.792C93.7057 115.397 94.8689 111.056 98.264 109.095Z" fill="white"/>
</g>
<defs>
<clipPath id="clip0">
<rect width="800" height="326" fill="white"/>
</clipPath>
</defs>
</svg>
